<?xml version="1.0" encoding="UTF-8" standalone="no"?>
<!-- Created with Inkscape (http://www.inkscape.org/) -->

<svg
   xmlns:dc="http://purl.org/dc/elements/1.1/"
   xmlns:cc="http://creativecommons.org/ns#"
   xmlns:rdf="http://www.w3.org/1999/02/22-rdf-syntax-ns#"
   xmlns:svg="http://www.w3.org/2000/svg"
   xmlns="http://www.w3.org/2000/svg"
   xmlns:sodipodi="http://sodipodi.sourceforge.net/DTD/sodipodi-0.dtd"
   xmlns:inkscape="http://www.inkscape.org/namespaces/inkscape"
   version="1.1"
   id="svg2"
   xml:space="preserve"
   width="1066.6667"
   height="1066.6667"
   viewBox="0 0 1066.6667 1066.6667"
   sodipodi:docname="deliveryYummiPizza.ai.svg"
   inkscape:version="0.92.3 (2405546, 2018-03-11)"><metadata
     id="metadata8"><rdf:RDF><cc:Work
         rdf:about=""><dc:format>image/svg+xml</dc:format><dc:type
           rdf:resource="http://purl.org/dc/dcmitype/StillImage" /><dc:title></dc:title></cc:Work></rdf:RDF></metadata><defs
     id="defs6"><clipPath
       clipPathUnits="userSpaceOnUse"
       id="clipPath44"><path
         d="M 0,800 H 800 V 0 H 0 Z"
         id="path42"
         inkscape:connector-curvature="0" /></clipPath><clipPath
       clipPathUnits="userSpaceOnUse"
       id="clipPath52"><path
         d="M 119.938,191.188 H 719.666 V 127.393 H 119.938 Z"
         id="path50"
         inkscape:connector-curvature="0" /></clipPath><clipPath
       clipPathUnits="userSpaceOnUse"
       id="clipPath56"><path
         d="m 719.666,159.291 c 0,-17.617 -134.254,-31.898 -299.863,-31.898 -165.611,0 -299.865,14.281 -299.865,31.898 0,17.616 134.254,31.897 299.865,31.897 165.609,0 299.863,-14.281 299.863,-31.897"
         id="path54"
         inkscape:connector-curvature="0" /></clipPath><clipPath
       clipPathUnits="userSpaceOnUse"
       id="clipPath60"><path
         d="M -32768,32767 H 32767 V -32768 H -32768 Z"
         id="path58"
         inkscape:connector-curvature="0" /></clipPath><radialGradient
       fx="0"
       fy="0"
       cx="0"
       cy="0"
       r="1"
       gradientUnits="userSpaceOnUse"
       gradientTransform="matrix(301.70572,0,0,-30.63007,419.80273,159.29102)"
       spreadMethod="pad"
       id="radialGradient66"><stop
         style="stop-opacity:1;stop-color:#ffffff"
         offset="0"
         id="stop62" /><stop
         style="stop-opacity:0;stop-color:#ffffff"
         offset="1"
         id="stop64" /></radialGradient><mask
       maskUnits="userSpaceOnUse"
       x="0"
       y="0"
       width="1"
       height="1"
       id="mask68"><g
         id="g78"><g
           clip-path="url(#clipPath60)"
           id="g76"><g
             id="g74"><g
               id="g72"><path
                 d="M -32768,32767 H 32767 V -32768 H -32768 Z"
                 style="fill:url(#radialGradient66);stroke:none"
                 id="path70"
                 inkscape:connector-curvature="0" /></g></g></g></g></mask><radialGradient
       fx="0"
       fy="0"
       cx="0"
       cy="0"
       r="1"
       gradientUnits="userSpaceOnUse"
       gradientTransform="matrix(301.70572,0,0,-30.63007,419.80273,159.29102)"
       spreadMethod="pad"
       id="radialGradient84"><stop
         style="stop-opacity:1;stop-color:#1d1d1b"
         offset="0"
         id="stop80" /><stop
         style="stop-opacity:1;stop-color:#000000"
         offset="1"
         id="stop82" /></radialGradient><clipPath
       clipPathUnits="userSpaceOnUse"
       id="clipPath238"><path
         d="M 0,800 H 800 V 0 H 0 Z"
         id="path236"
         inkscape:connector-curvature="0" /></clipPath></defs><sodipodi:namedview
     pagecolor="#ffffff"
     bordercolor="#666666"
     borderopacity="1"
     objecttolerance="10"
     gridtolerance="10"
     guidetolerance="10"
     inkscape:pageopacity="0"
     inkscape:pageshadow="2"
     inkscape:window-width="1360"
     inkscape:window-height="731"
     id="namedview4"
     showgrid="false"
     inkscape:zoom="0.31289473"
     inkscape:cx="817.52873"
     inkscape:cy="868.96826"
     inkscape:window-x="1366"
     inkscape:window-y="0"
     inkscape:window-maximized="1"
     inkscape:current-layer="g10" /><g
     id="g10"
     inkscape:groupmode="layer"
     inkscape:label="15"
     transform="matrix(1.3333333,0,0,-1.3333333,0,1066.6667)"><g
       id="g48"
       transform="translate(15)" /><flowRoot
       xml:space="preserve"
       id="flowRoot2258"
       style="font-style:normal;font-weight:normal;font-size:21.33333329px;line-height:1.25;font-family:sans-serif;letter-spacing:0px;word-spacing:0px;fill:#000000;fill-opacity:1;stroke:none;"
       transform="matrix(0.75000002,0,0,-0.75000002,0,800.00005)"><flowRegion
         id="flowRegion2260"
         style="font-size:21.33333329px;"><rect
           id="rect2262"
           width="195.48022"
           height="31.073454"
           x="251.41245"
           y="392.09042"
           style="font-size:21.33333397px" /></flowRegion><flowPara
         id="flowPara2264" /></flowRoot><g
       id="g2513"
       transform="translate(-9,6)"><g
         transform="translate(15)"
         style="opacity:0.39999402;fill:#00bb00;fill-opacity:1"
         id="g100"
         clip-path="url(#clipPath52)"><g
           style="fill:#00bb00;fill-opacity:1"
           id="g98"><g
             style="fill:#00bb00;fill-opacity:1"
             id="g96"
             clip-path="url(#clipPath56)"><g
               style="fill:#00bb00;fill-opacity:1"
               id="g94"><g
                 style="fill:#00bb00;fill-opacity:1"
                 id="g86" /><g
                 style="fill:#00bb00;fill-opacity:1"
                 id="g92"
                 mask="url(#mask68)"><g
                   style="fill:#00bb00;fill-opacity:1"
                   id="g90"><path
                     inkscape:connector-curvature="0"
                     id="path88"
                     style="fill:#00bb00;fill-opacity:1;stroke:none"
                     d="m 719.666,159.291 c 0,-17.617 -134.254,-31.898 -299.863,-31.898 -165.611,0 -299.865,14.281 -299.865,31.898 0,17.616 134.254,31.897 299.865,31.897 165.609,0 299.863,-14.281 299.863,-31.897" /></g></g></g></g></g></g><g
         transform="translate(731.7285,218.7051)"
         id="g240"><path
           inkscape:connector-curvature="0"
           id="path242"
           style="fill:#000000;fill-opacity:1;fill-rule:nonzero;stroke:none"
           d="m 0,0 c 0,-32.81 -26.609,-59.415 -59.415,-59.415 -32.808,0 -59.416,26.605 -59.416,59.415 0,32.812 26.608,59.416 59.416,59.416 C -26.609,59.416 0,32.812 0,0" /></g><g
         transform="translate(716.8838,218.7051)"
         id="g244"><path
           inkscape:connector-curvature="0"
           id="path246"
           style="fill:#4d4d4d;fill-opacity:1;fill-rule:nonzero;stroke:none"
           d="m 0,0 c 0,-24.612 -19.962,-44.568 -44.57,-44.568 -24.611,0 -44.573,19.956 -44.573,44.568 0,24.614 19.962,44.572 44.573,44.572 C -19.962,44.572 0,24.614 0,0" /></g><g
         transform="translate(708.4775,218.7051)"
         id="g248"><path
           inkscape:connector-curvature="0"
           id="path250"
           style="fill:#f1f1f1;fill-opacity:1;fill-rule:nonzero;stroke:none"
           d="m 0,0 c 0,-19.971 -16.196,-36.164 -36.164,-36.164 -19.969,0 -36.167,16.193 -36.167,36.164 0,19.971 16.198,36.166 36.167,36.166 C -16.196,36.166 0,19.971 0,0" /></g><g
         transform="translate(697.9111,218.7051)"
         id="g252"><path
           inkscape:connector-curvature="0"
           id="path254"
           style="fill:#cbcbcb;fill-opacity:1;fill-rule:nonzero;stroke:none"
           d="m 0,0 c 0,-14.135 -11.464,-25.598 -25.598,-25.598 -14.134,0 -25.598,11.463 -25.598,25.598 0,14.137 11.464,25.598 25.598,25.598 C -11.464,25.598 0,14.137 0,0" /></g><g
         transform="translate(681.9404,218.7051)"
         id="g256"><path
           inkscape:connector-curvature="0"
           id="path258"
           style="fill:#989898;fill-opacity:1;fill-rule:nonzero;stroke:none"
           d="m 0,0 c 0,-5.315 -4.312,-9.629 -9.627,-9.629 -5.317,0 -9.63,4.314 -9.63,9.629 0,5.318 4.313,9.628 9.63,9.628 C -4.312,9.628 0,5.318 0,0" /></g><g
         transform="translate(388.9136,218.7051)"
         id="g260"><path
           inkscape:connector-curvature="0"
           id="path262"
           style="fill:#000000;fill-opacity:1;fill-rule:nonzero;stroke:none"
           d="m 0,0 c 0,-32.81 -26.609,-59.415 -59.417,-59.415 -32.807,0 -59.416,26.605 -59.416,59.415 0,32.812 26.609,59.416 59.416,59.416 C -26.609,59.416 0,32.812 0,0" /></g><g
         transform="translate(375.1704,218.7051)"
         id="g264"><path
           inkscape:connector-curvature="0"
           id="path266"
           style="fill:#4d4d4d;fill-opacity:1;fill-rule:nonzero;stroke:none"
           d="m 0,0 c 0,-25.221 -20.455,-45.671 -45.673,-45.671 -25.22,0 -45.674,20.45 -45.674,45.671 0,25.223 20.454,45.675 45.674,45.675 C -20.455,45.675 0,25.223 0,0" /></g><g
         transform="translate(365.6621,218.7051)"
         id="g268"><path
           inkscape:connector-curvature="0"
           id="path270"
           style="fill:#f1f1f1;fill-opacity:1;fill-rule:nonzero;stroke:none"
           d="m 0,0 c 0,-19.971 -16.197,-36.164 -36.165,-36.164 -19.969,0 -36.166,16.193 -36.166,36.164 0,19.971 16.197,36.166 36.166,36.166 C -16.197,36.166 0,19.971 0,0" /></g><g
         transform="translate(355.0947,218.7051)"
         id="g272"><path
           inkscape:connector-curvature="0"
           id="path274"
           style="fill:#cbcbcb;fill-opacity:1;fill-rule:nonzero;stroke:none"
           d="m 0,0 c 0,-14.135 -11.463,-25.598 -25.598,-25.598 -14.134,0 -25.597,11.463 -25.597,25.598 0,14.137 11.463,25.598 25.597,25.598 C -11.463,25.598 0,14.137 0,0" /></g><g
         transform="translate(339.1255,218.7051)"
         id="g276"><path
           inkscape:connector-curvature="0"
           id="path278"
           style="fill:#989898;fill-opacity:1;fill-rule:nonzero;stroke:none"
           d="m 0,0 c 0,-5.315 -4.312,-9.629 -9.628,-9.629 -5.317,0 -9.629,4.314 -9.629,9.629 0,5.318 4.312,9.628 9.629,9.628 C -4.312,9.628 0,5.318 0,0" /></g><g
         transform="translate(676.333,223.9131)"
         id="g280"><path
           inkscape:connector-curvature="0"
           id="path282"
           style="fill:#e5e5e5;fill-opacity:1;fill-rule:nonzero;stroke:none"
           d="m 0,0 c 2.659,-2.661 2.657,-6.972 0,-9.632 -2.659,-2.658 -6.972,-2.66 -9.631,0 l -70.74,70.741 c -2.661,2.66 -2.659,6.972 0,9.63 2.659,2.659 6.97,2.66 9.631,0 z" /></g><g
         transform="translate(575.0723,441.9922)"
         id="g284"><path
           inkscape:connector-curvature="0"
           id="path286"
           style="fill:#ffd2aa;fill-opacity:1;fill-rule:nonzero;stroke:none"
           d="m 0,0 10.175,0.76 c 0,0 6.345,12.672 21.312,4.399 14.966,-8.274 5.838,-17.277 -3.028,-18.423 -8.866,-1.145 -10.338,0.993 -10.338,0.993 0,0 9.493,10.799 -0.309,11.834 C 8.011,0.598 7.489,-7.077 7.489,-7.077 L -7.145,-7.573 Z" /></g><g
         style="fill:#006900;fill-opacity:1"
         transform="translate(517.8389,511.0879)"
         id="g288"><path
           inkscape:connector-curvature="0"
           id="path290"
           style="fill:#006900;fill-opacity:1;fill-rule:nonzero;stroke:none"
           d="m 0,0 c 3.055,-0.298 7.046,6.805 11.228,-60.982 l 50.968,-5.405 c 0,0 -13.144,-16.988 -10.593,-28.11 0,0 -52.864,11.713 -60.706,21.013 C -16.942,-64.184 -29.28,2.854 0,0" /></g><path
         d="m 571.6445,430.3052 c 0,0 12.821,22.389 23.438,21.512 10.618,-0.876 13.249,-15.792 13.249,-15.792 0,0 4.486,4.393 10.579,5.048 0,0 -7.409,-20.4 0,-37.508 0,0 -4.876,-1.262 -9.701,5.291 0,0 -9.992,-13.186 5.314,-36.875 15.302,-23.687 22.32,-70.187 22.32,-70.187 0,0 68.434,29.724 97.822,-34.927 0,0 -50.447,36.138 -94.312,0 -43.866,-36.136 -24.688,-35.695 -52.482,-44.471 0,0 3.349,9.793 7.738,15.205 0,0 -17.226,-22.224 -44.802,-22.224 -27.578,0 -131.539,1.755 -131.539,1.755 0,0 -11.408,1.317 -11.846,9.212 l -175.026,2.195 c 0,0 -42.988,-16.671 14.038,54.831 0,0 15.353,8.771 2.631,26.32 0,0 5.266,10.966 32.462,2.632 0,0 9.65,27.636 -14.038,32.9 v 4.826 h 112.298 l 0.439,-5.702 c 0,0 67.793,10.965 98.599,5.702 0,0 -55.61,-48.258 -9.551,-105.062 0,0 14.917,-15.91 106.598,0.271 0,0 13.801,8.285 4.925,67.505 -8.875,59.219 17.005,56.148 17.005,56.148 z"
         style="fill:#ed121d;fill-opacity:1;fill-rule:nonzero;stroke:none"
         id="path294"
         inkscape:connector-curvature="0" /><g
         style="fill:#003fa7;fill-opacity:1"
         transform="translate(486.5908,373.9717)"
         id="g296"><path
           inkscape:connector-curvature="0"
           id="path298"
           style="fill:#003fa7;fill-opacity:1;fill-rule:nonzero;stroke:none"
           d="m 0,0 c 10.049,-1.056 15.791,-28.729 -10.83,-26.884 -26.618,1.844 -76.877,-0.103 -76.877,-0.103 0,0 -31.939,32.93 -4.435,56.957 C -64.636,53.997 -102.921,10.812 0,0" /></g><g
         transform="translate(573.7393,429.2051)"
         id="g300"><path
           inkscape:connector-curvature="0"
           id="path302"
           style="fill:#000000;fill-opacity:1;fill-rule:nonzero;stroke:none"
           d="M 0,0 C 0,0 9.493,5.831 13.151,-0.269 16.81,-6.368 9.054,-9.982 9.054,-9.982 9.054,-9.982 -0.431,-4.03 0,0" /></g><g
         transform="translate(515.8135,249.6211)"
         id="g304"><path
           inkscape:connector-curvature="0"
           id="path306"
           style="fill:#ffd2aa;fill-opacity:1;fill-rule:nonzero;stroke:none"
           d="m 0,0 -8.298,4.048 6.436,13.198 8.299,-4.048 z" /></g><g
         transform="translate(507.541,253.707)"
         id="g308"><path
           inkscape:connector-curvature="0"
           id="path310"
           style="fill:#e5e5e5;fill-opacity:1;fill-rule:nonzero;stroke:none"
           d="m 0,0 c 0,0 -2.175,-3.908 -2.547,-6.652 0,0 2.243,-4.674 8.661,-3.74 l 2.689,7.378 C 8.803,-3.014 6.098,-3.691 0,0" /></g><g
         style="fill:#006900;fill-opacity:1"
         transform="translate(505.6953,249.1787)"
         id="g312"><path
           inkscape:connector-curvature="0"
           id="path314"
           style="fill:#006900;fill-opacity:1;fill-rule:nonzero;stroke:none"
           d="m 0,0 c 0,0 5.519,-3.038 9.462,-0.924 0,0 11.525,3.347 17.487,-0.442 5.96,-3.788 5.117,-9.849 5.117,-9.849 0,0 -23.054,-5.878 -35.002,2.894 0,0 0.378,7.833 2.936,8.321" /></g><g
         transform="translate(483.3271,254.1436)"
         id="g316"><path
           inkscape:connector-curvature="0"
           id="path318"
           style="fill:#ffd2aa;fill-opacity:1;fill-rule:nonzero;stroke:none"
           d="m 0,0 -8.3,4.048 7.107,14.573 8.298,-4.049 z" /></g><g
         style="fill:#006900;fill-opacity:1"
         transform="translate(427.9873,408.0937)"
         id="g320"><path
           inkscape:connector-curvature="0"
           id="path322"
           style="fill:#006900;fill-opacity:1;fill-rule:nonzero;stroke:none"
           d="m 0,0 c 0,0 -20.645,-6.82 -4.136,-17.47 16.506,-10.65 87.76,-16.493 114.399,-10.165 0,0 -18.405,-30.321 -18.274,-51.633 0.129,-21.31 -10.344,-64.587 -10.344,-64.587 0,0 10.213,-4.673 13.709,-9.771 0,0 42.763,112.52 32.03,133.441 C 116.649,0.737 50.954,7.791 50.954,7.791 45.129,3.147 19.838,1.347 0,0" /></g><g
         style="fill:#00a800;fill-opacity:1"
         transform="translate(419.2686,418.479)"
         id="g324"><path
           inkscape:connector-curvature="0"
           id="path326"
           style="fill:#00a800;fill-opacity:1;fill-rule:nonzero;stroke:none"
           d="m 0,0 c 0,0 -14.585,-15.683 0,-28.842 14.584,-13.159 77.094,-18.095 104.4,-16.12 0,0 -23.029,-26.979 -26.318,-48.035 -3.29,-21.056 -18.545,-54.284 -18.545,-54.284 0,0 9.333,-6.252 11.965,-11.844 0,0 58.231,96.396 50.995,118.768 C 115.258,-17.985 51.543,-0.483 51.543,-0.483 45.049,-4.133 19.796,-1.853 0,0" /></g><g
         transform="translate(432.8682,437.7793)"
         id="g328"><path
           inkscape:connector-curvature="0"
           id="path330"
           style="fill:#ffd2aa;fill-opacity:1;fill-rule:nonzero;stroke:none"
           d="m 0,0 c 0,0 -11.407,-13.159 -13.6,-19.3 0,0 44.304,-5.352 51.543,-0.483 0,0 -21.713,24.17 -37.943,19.783" /></g><g
         transform="translate(525.5967,514.6558)"
         id="g332"><path
           inkscape:connector-curvature="0"
           id="path334"
           style="fill:#ffd2aa;fill-opacity:1;fill-rule:nonzero;stroke:none"
           d="M 0,0 13.78,16.498 30.114,8.248 13.27,-10.724 Z" /></g><g
         transform="translate(638.6787,575.0752)"
         id="g336"><path
           inkscape:connector-curvature="0"
           id="path338"
           style="fill:#e5e5e5;fill-opacity:1;fill-rule:nonzero;stroke:none"
           d="m 0,0 c 0,0 -0.501,-48.366 -19.509,-55.712 0,0 -89.562,29.808 -62.635,92.864 C -55.218,100.21 -12.612,19.77 0,0" /></g><g
         transform="translate(604.5937,596.208)"
         id="g340"><path
           inkscape:connector-curvature="0"
           id="path342"
           style="fill:#ffffff;fill-opacity:1;fill-rule:nonzero;stroke:none"
           d="M 0,0 -53.106,-31.7 -48.4,-46.696 14.316,-5.113 Z" /></g><g
         transform="translate(624.0234,586.3232)"
         id="g344"><path
           inkscape:connector-curvature="0"
           id="path346"
           style="fill:#ffffff;fill-opacity:1;fill-rule:nonzero;stroke:none"
           d="m 0,0 -61.695,-48.742 26.927,-25.222 49.423,65.293 z" /></g><g
         style="fill:#00a800;fill-opacity:1"
         transform="translate(523.4717,533.1499)"
         id="g348"><path
           inkscape:connector-curvature="0"
           id="path350"
           style="fill:#00a800;fill-opacity:1;fill-rule:nonzero;stroke:none"
           d="m 0,0 68.511,-40.902 c 0,0 31.359,19.429 30.677,28.631 0,0 -50.327,16.463 -59.309,56.241 -9.544,42.266 77.374,-6.476 77.374,-6.476 0,0 11.931,74.307 -83.508,69.875 C -34.767,107.369 0,0 0,0" /></g><g
         transform="translate(521.4932,540.0454)"
         id="g352"><path
           inkscape:connector-curvature="0"
           id="path354"
           style="fill:#333333;fill-opacity:1;fill-rule:nonzero;stroke:none"
           d="m 0,0 -2.712,-6.335 74.282,-44.443 2.02,2.981 z" /></g><g
         style="fill:#009900;fill-opacity:1"
         transform="translate(514.6504,524.1968)"
         id="g356"><path
           inkscape:connector-curvature="0"
           id="path358"
           style="fill:#009900;fill-opacity:1;fill-rule:nonzero;stroke:none"
           d="m 0,0 c 0,0 -16.643,2.645 -37.697,-11.837 -21.057,-14.483 -7.897,-29.617 -38.165,-31.591 -30.268,-1.974 -37.505,-23.029 -42.769,-36.189 0,0 23.029,-5.264 36.847,-13.16 13.818,-7.897 44.744,-15.135 44.744,-15.135 0,0 22.621,26.859 34.938,33.391 13.048,6.92 30.801,28.041 31.754,39.592 C 30.606,-23.378 40.33,-17.108 0,0" /></g><g
         transform="translate(546.0068,428.9419)"
         id="g360"><path
           inkscape:connector-curvature="0"
           id="path362"
           style="fill:#ffd2aa;fill-opacity:1;fill-rule:nonzero;stroke:none"
           d="m 0,0 10.04,-1.811 c 0,0 9.314,10.682 21.734,-1.073 12.421,-11.756 1.331,-18.187 -7.541,-17.078 -8.869,1.109 -9.757,3.547 -9.757,3.547 0,0 11.89,8.081 2.661,11.535 C 7.905,-1.426 5.48,-8.726 5.48,-8.726 l -14.293,3.181 z" /></g><g
         style="fill:#00aa00;fill-opacity:1"
         transform="translate(507.8789,510.1592)"
         id="g364"><path
           inkscape:connector-curvature="0"
           id="path366"
           style="fill:#00aa00;fill-opacity:1;fill-rule:nonzero;stroke:none"
           d="m 0,0 c 2.885,-1.052 8.526,4.826 -4.387,-61.852 l 47.995,-17.984 c 0,0 -16.977,-13.16 -17.288,-24.565 0,0 -48.253,24.565 -53.517,35.531 C -32.461,-57.904 -27.635,10.088 0,0" /></g><g
         transform="translate(475.6953,259.5645)"
         id="g368"><path
           inkscape:connector-curvature="0"
           id="path370"
           style="fill:#e5e5e5;fill-opacity:1;fill-rule:nonzero;stroke:none"
           d="m 0,0 c 0,0 -2.172,-3.908 -2.546,-6.652 0,0 2.245,-4.674 8.662,-3.74 l 2.689,7.378 C 8.805,-3.014 6.101,-3.69 0,0" /></g><g
         style="fill:#00a800;fill-opacity:1"
         transform="translate(473.1494,252.9121)"
         id="g372"><path
           inkscape:connector-curvature="0"
           id="path374"
           style="fill:#00a800;fill-opacity:1;fill-rule:nonzero;stroke:none"
           d="m 0,0 c 0,0 5.133,-3.654 9.293,-2.007 0,0 11.836,1.994 17.32,-2.456 5.484,-4.45 3.948,-10.372 3.948,-10.372 0,0 -23.579,-3.182 -34.436,6.909 0,0 1.279,7.739 3.875,7.926" /></g><g
         transform="translate(568.4727,416.8486)"
         id="g376"><path
           inkscape:connector-curvature="0"
           id="path378"
           style="fill:#000000;fill-opacity:1;fill-rule:nonzero;stroke:none"
           d="m 0,0 c 0,-4.878 -3.954,-8.833 -8.833,-8.833 -4.879,0 -8.832,3.955 -8.832,8.833 0,4.878 3.953,8.833 8.832,8.833 C -3.954,8.833 0,4.878 0,0" /></g><g
         transform="translate(629.8252,422.999)"
         id="g380"><path
           inkscape:connector-curvature="0"
           id="path382"
           style="fill:#ffffb5;fill-opacity:1;fill-rule:nonzero;stroke:none"
           d="m 0,0 c 0,-11.46 -4.144,-20.75 -9.255,-20.75 -5.111,0 -9.257,9.29 -9.257,20.75 0,11.458 4.146,20.749 9.257,20.749 C -4.144,20.749 0,11.458 0,0" /></g><g
         transform="translate(255.5767,298.9814)"
         id="g384"><path
           inkscape:connector-curvature="0"
           id="path386"
           style="fill:#faaf3b;fill-opacity:1;fill-rule:nonzero;stroke:none"
           d="m 0,0 c 0,-7.03 -2.541,-12.729 -5.678,-12.729 -3.135,0 -5.678,5.699 -5.678,12.729 0,7.029 2.543,12.729 5.678,12.729 C -2.541,12.729 0,7.029 0,0" /></g><g
         id="g2379"><path
           d="m 134.938,357.114 h 244.849 v -7.066 H 134.938 Z"
           style="fill:#808080;fill-opacity:1;fill-rule:nonzero;stroke:none"
           id="path388"
           inkscape:connector-curvature="0" /><g
           id="g390"
           transform="translate(364.4526,514.2378)"><path
             d="m 0,0 h -204.351 v -15.329 h -15.334 V -157.124 H 15.334 v 141.795 z"
             style="fill:#b2b2b2;fill-opacity:1;fill-rule:nonzero;stroke:none"
             id="path392"
             inkscape:connector-curvature="0" /></g><path
           d="m 160.102,357.114 h -15.334 v 141.795 h 15.334 z"
           style="fill:#989898;fill-opacity:1;fill-rule:nonzero;stroke:none"
           id="path394"
           inkscape:connector-curvature="0" /><g
           id="g408"
           transform="translate(197.6577,425.12593)"><path
             d="m 0,0 h 9.944 c 2.725,0 4.76,0.731 6.104,2.192 1.344,1.461 2.016,3.304 2.016,5.528 0,2.224 -0.676,4.081 -2.029,5.57 -1.354,1.489 -3.384,2.233 -6.091,2.233 H 0 Z M 0,-4.281 V -20.413 H -5.441 V 19.805 H 9.944 c 4.29,0 7.623,-1.105 9.999,-3.315 2.375,-2.209 3.563,-5.119 3.563,-8.728 0,-3.665 -1.188,-6.588 -3.563,-8.77 -2.376,-2.182 -5.709,-3.273 -9.999,-3.273 z"
             style="fill:#ff0000;fill-opacity:1;fill-rule:nonzero;stroke:none"
             id="path410"
             inkscape:connector-curvature="0" /></g><path
           d="m 234.202,404.71373 h -5.469 v 40.218 h 5.469 z"
           style="fill:#ff0000;fill-opacity:1;fill-rule:nonzero;stroke:none"
           id="path412"
           inkscape:connector-curvature="0" /><g
           id="g414"
           transform="translate(248.2891,408.99453)"><path
             d="M 0,0 H 22.484 V -4.281 H -6.132 v 4.06 l 21.49,31.876 H -5.828 v 4.282 h 27.401 v -3.895 z"
             style="fill:#ff0000;fill-opacity:1;fill-rule:nonzero;stroke:none"
             id="path416"
             inkscape:connector-curvature="0" /></g><g
           id="g418"
           transform="translate(282.126,408.99453)"><path
             d="M 0,0 H 22.484 V -4.281 H -6.132 v 4.06 l 21.49,31.876 H -5.828 v 4.282 h 27.401 v -3.895 z"
             style="fill:#ff0000;fill-opacity:1;fill-rule:nonzero;stroke:none"
             id="path420"
             inkscape:connector-curvature="0" /></g><g
           id="g422"
           transform="translate(319.1113,419.62933)"><path
             d="M 0,0 H 13.535 L 6.906,18.313 H 6.74 Z m 15.165,-4.558 h -16.85 l -3.812,-10.358 h -5.552 L 4.502,25.302 H 9.17 l 15.303,-40.218 h -5.552 z"
             style="fill:#ff0000;fill-opacity:1;fill-rule:nonzero;stroke:none"
             id="path424"
             inkscape:connector-curvature="0" /></g><g
           id="g426"
           transform="translate(197.4746,382.79878)"><path
             d="m 0,0 v -15.607 h 2.734 c 1.501,0 2.674,0.514 3.519,1.542 0.844,1.028 1.267,2.387 1.267,4.077 v 4.402 c 0,1.678 -0.423,3.029 -1.267,4.052 C 5.408,-0.512 4.235,0 2.734,0 Z M -5.653,-19.943 V 4.335 h 8.771 c 2.857,0 5.247,-0.931 7.17,-2.793 1.923,-1.862 2.885,-4.249 2.885,-7.162 v -4.368 c 0,-2.924 -0.962,-5.314 -2.885,-7.17 -1.923,-1.857 -4.313,-2.785 -7.17,-2.785 z"
             style="fill:#ff0000;fill-opacity:1;fill-rule:nonzero;stroke:none"
             id="path428"
             inkscape:connector-curvature="0" /></g><g
           id="g430"
           transform="translate(229.3062,373.24408)"><path
             d="M 0,0 H -9.521 V -6.053 H 1.701 v -4.335 H -15.174 V 13.89 H 1.734 V 9.555 H -9.521 V 4.335 H 0 Z"
             style="fill:#ff0000;fill-opacity:1;fill-rule:nonzero;stroke:none"
             id="path432"
             inkscape:connector-curvature="0" /></g><g
           id="g434"
           transform="translate(239.2109,367.19138)"><path
             d="M 0,0 H 10.455 V -4.335 H -5.653 V 19.942 H 0 Z"
             style="fill:#ff0000;fill-opacity:1;fill-rule:nonzero;stroke:none"
             id="path436"
             inkscape:connector-curvature="0" /></g><path
           d="m 258.053,362.85578 h -5.62 v 24.278 h 5.62 z"
           style="fill:#ff0000;fill-opacity:1;fill-rule:nonzero;stroke:none"
           id="path438"
           inkscape:connector-curvature="0" /><g
           id="g440"
           transform="translate(270.959,369.44238)"><path
             d="m 0,0 0.167,-0.884 h 0.1 l 0.167,0.817 4.818,17.758 h 5.903 L 3.285,-6.586 h -6.086 l -7.837,24.277 h 5.886 z"
             style="fill:#ff0000;fill-opacity:1;fill-rule:nonzero;stroke:none"
             id="path442"
             inkscape:connector-curvature="0" /></g><g
           id="g444"
           transform="translate(299.1724,373.24408)"><path
             d="M 0,0 H -9.521 V -6.053 H 1.701 v -4.335 H -15.174 V 13.89 H 1.734 V 9.555 H -9.521 V 4.335 H 0 Z"
             style="fill:#ff0000;fill-opacity:1;fill-rule:nonzero;stroke:none"
             id="path446"
             inkscape:connector-curvature="0" /></g><g
           id="g448"
           transform="translate(309.0771,376.49558)"><path
             d="M 0,0 H 3.718 C 4.852,0 5.719,0.258 6.319,0.775 6.92,1.292 7.22,2.034 7.22,3.001 7.22,3.991 6.912,4.788 6.294,5.394 5.677,6 4.808,6.303 3.685,6.303 H 0 Z m 0,-4.335 v -9.305 h -5.653 v 24.278 h 9.338 c 2.812,0 5.041,-0.65 6.686,-1.95 1.646,-1.301 2.468,-3.08 2.468,-5.336 0,-1.257 -0.331,-2.335 -0.992,-3.235 -0.661,-0.901 -1.637,-1.634 -2.927,-2.201 1.49,-0.423 2.56,-1.126 3.21,-2.109 0.651,-0.984 0.976,-2.21 0.976,-3.677 v -1.534 c 0,-0.634 0.094,-1.357 0.284,-2.168 0.188,-0.812 0.516,-1.39 0.983,-1.734 V -13.64 H 8.57 c -0.444,0.345 -0.736,0.956 -0.875,1.834 -0.139,0.879 -0.208,1.69 -0.208,2.435 v 1.467 c 0,1.156 -0.306,2.04 -0.918,2.652 -0.611,0.611 -1.506,0.917 -2.684,0.917 z"
             style="fill:#ff0000;fill-opacity:1;fill-rule:nonzero;stroke:none"
             id="path450"
             inkscape:connector-curvature="0" /></g><g
           id="g452"
           transform="translate(334.1221,376.52878)"><path
             d="m 0,0 h 0.1 l 4.836,10.605 h 6.119 L 2.801,-5.136 v -8.537 h -5.619 v 8.821 l -8.087,15.457 h 6.086 z"
             style="fill:#ff0000;fill-opacity:1;fill-rule:nonzero;stroke:none"
             id="path454"
             inkscape:connector-curvature="0" /></g><path
           d="M 344.667,392.88132 H 191.431 v 2.334 h 153.236 z"
           style="fill:#000000;fill-opacity:1;fill-rule:nonzero;stroke:none"
           id="path496"
           inkscape:connector-curvature="0" /><text
           xml:space="preserve"
           style="font-style:normal;font-weight:normal;font-size:12px;line-height:1.25;font-family:sans-serif;letter-spacing:0px;word-spacing:0px;fill:#00e100;fill-opacity:1;stroke:none;stroke-width:0.75"
           x="185.16956"
           y="-457.62671"
           id="text2268"
           transform="scale(1,-1)"><tspan
             sodipodi:role="line"
             id="tspan2266"
             x="185.16956"
             y="-457.62671"
             style="font-size:45px;fill:#00e100;fill-opacity:1;stroke-width:0.75">YUMMY</tspan></text>
</g><g
         id="g2334"><path
           inkscape:connector-curvature="0"
           id="path398"
           style="fill:#ff0000;fill-opacity:1;fill-rule:nonzero;stroke:none"
           d="m 467.7412,626.8437 c 0,0 -5.12,-0.093 -14.08,-0.255 -8.96,-0.106 -21.76,-0.364 -37.12,-0.483 -7.68,-0.067 -16.001,-0.14 -24.8,-0.218 -8.801,-0.074 -18.081,-0.179 -27.681,-0.184 -19.2,-0.055 -39.68,-0.115 -60.16,-0.174 -20.48,0.059 -40.961,0.117 -60.161,0.172 -9.6,0.005 -18.88,0.104 -27.68,0.182 -8.8,0.078 -17.12,0.151 -24.8,0.219 -15.36,0.117 -28.161,0.379 -37.121,0.485 -8.959,0.163 -14.08,0.256 -14.08,0.256 0,0 5.121,0.093 14.08,0.256 8.96,0.106 21.761,0.368 37.121,0.485 7.68,0.068 16,0.141 24.8,0.219 8.8,0.078 18.08,0.177 27.68,0.182 19.2,0.055 39.681,0.113 60.161,0.172 20.48,-0.059 40.96,-0.119 60.16,-0.174 9.6,-0.005 18.88,-0.11 27.681,-0.184 8.799,-0.078 17.12,-0.151 24.8,-0.218 15.36,-0.119 28.16,-0.377 37.12,-0.483 8.96,-0.162 14.08,-0.255 14.08,-0.255" /><path
           inkscape:connector-curvature="0"
           id="path402"
           style="fill:#ff0000;fill-opacity:1;fill-rule:nonzero;stroke:none"
           d="m 396.019,577.6523 c 0,0 -5.511,-0.093 -15.154,-0.255 -9.644,-0.106 -23.421,-0.364 -39.953,-0.483 -8.266,-0.067 -17.221,-0.14 -26.693,-0.218 -9.471,-0.074 -19.459,-0.179 -29.792,-0.184 -20.665,-0.055 -42.708,-0.115 -64.751,-0.174 -22.043,0.059 -44.085,0.117 -64.751,0.172 -10.332,0.005 -20.321,0.104 -29.792,0.182 -9.471,0.078 -18.426,0.151 -26.693,0.219 -16.531,0.117 -30.308,0.379 -39.952,0.485 -9.644,0.163 -15.155,0.256 -15.155,0.256 0,0 5.511,0.093 15.155,0.256 9.644,0.106 23.421,0.368 39.952,0.485 8.267,0.068 17.222,0.141 26.693,0.219 9.471,0.078 19.46,0.177 29.792,0.182 20.666,0.055 42.708,0.113 64.751,0.172 22.043,-0.059 44.086,-0.119 64.751,-0.174 10.333,-0.005 20.321,-0.11 29.792,-0.184 9.472,-0.078 18.427,-0.151 26.693,-0.218 16.532,-0.119 30.309,-0.377 39.953,-0.483 9.643,-0.162 15.154,-0.255 15.154,-0.255" /><path
           inkscape:connector-curvature="0"
           id="path406"
           style="fill:#ff0000;fill-opacity:1;fill-rule:nonzero;stroke:none"
           d="m 412.7871,540.0454 c 0,0 -0.658,-0.025 -1.893,-0.071 -1.235,-0.042 -3.045,-0.105 -5.35,-0.184 -4.61,-0.106 -11.194,-0.364 -19.095,-0.483 -7.902,-0.116 -17.12,-0.335 -26.997,-0.418 -4.939,-0.037 -10.042,-0.075 -15.228,-0.114 -5.185,-0.015 -10.453,-0.03 -15.72,-0.045 -5.268,0.015 -10.535,0.03 -15.721,0.044 -5.185,0.039 -10.288,0.076 -15.227,0.112 -9.877,0.078 -19.095,0.303 -26.997,0.418 -7.901,0.117 -14.486,0.379 -19.095,0.485 -2.305,0.079 -4.115,0.142 -5.35,0.185 -1.235,0.046 -1.893,0.071 -1.893,0.071 0,0 0.658,0.025 1.893,0.071 1.235,0.043 3.045,0.106 5.35,0.185 4.609,0.106 11.194,0.368 19.095,0.485 7.902,0.115 17.12,0.34 26.997,0.418 4.939,0.036 10.042,0.073 15.227,0.112 5.186,0.014 10.453,0.029 15.721,0.044 5.267,-0.015 10.535,-0.03 15.72,-0.045 5.186,-0.039 10.289,-0.077 15.228,-0.114 9.877,-0.083 19.095,-0.302 26.997,-0.418 7.901,-0.119 14.485,-0.377 19.095,-0.483 2.305,-0.079 4.115,-0.142 5.35,-0.184 1.235,-0.046 1.893,-0.071 1.893,-0.071" /><path
           d="m 444.14798,608.9539 c 0,0 -4.69061,-0.0852 -12.89917,-0.23361 -8.20857,-0.0971 -19.93509,-0.33348 -34.00691,-0.4425 -7.03592,-0.0614 -14.65907,-0.12826 -22.72014,-0.19971 -8.0629,-0.0678 -16.56463,-0.16399 -25.35952,-0.16857 -17.58978,-0.0504 -36.35221,-0.10536 -55.11465,-0.15941 -18.76243,0.0541 -37.52578,0.10719 -55.11556,0.15757 -8.79489,0.005 -17.29662,0.0953 -25.3586,0.16674 -8.06199,0.0715 -15.68423,0.13834 -22.72014,0.20063 -14.07182,0.10719 -25.79926,0.34722 -34.00783,0.44433 -8.20764,0.14933 -12.89917,0.23453 -12.89917,0.23453 0,0 4.69153,0.0852 12.89917,0.23453 8.20857,0.0971 19.93601,0.33714 34.00783,0.44433 7.03591,0.0623 14.65815,0.12917 22.72014,0.20063 8.06198,0.0715 16.56371,0.16215 25.3586,0.16674 17.58978,0.0504 36.35313,0.10352 55.11556,0.15757 18.76244,-0.054 37.52487,-0.10902 55.11465,-0.15941 8.79489,-0.005 17.29662,-0.10077 25.35952,-0.16857 8.06107,-0.0714 15.68422,-0.13833 22.72014,-0.19971 14.07182,-0.10902 25.79834,-0.34539 34.00691,-0.4425 8.20856,-0.14841 12.89917,-0.23361 12.89917,-0.23361"
           style="fill:#00a800;fill-opacity:1;fill-rule:nonzero;stroke:none;stroke-width:0.91613448"
           id="path2290"
           inkscape:connector-curvature="0" /><path
           d="m 378.4408,563.88796 c 0,0 -5.04882,-0.0852 -13.8831,-0.23361 -8.8352,-0.0971 -21.45679,-0.33348 -36.60232,-0.4425 -7.57277,-0.0614 -15.77675,-0.12826 -24.45438,-0.19971 -8.67671,-0.0678 -17.82706,-0.16399 -27.29348,-0.16857 -18.93192,-0.0504 -39.12627,-0.10536 -59.32062,-0.15941 -20.19435,0.054 -40.38779,0.10719 -59.32062,0.15757 -9.4655,0.005 -18.61677,0.0953 -27.29348,0.16674 -8.67671,0.0715 -16.88069,0.13834 -24.45438,0.20063 -15.144615,0.10719 -27.7662,0.34722 -36.6014,0.44433 -8.835201,0.14933 -13.884018,0.23453 -13.884018,0.23453 0,0 5.048817,0.0852 13.884018,0.23453 8.8352,0.0971 21.456785,0.33714 36.6014,0.44433 7.57369,0.0623 15.77767,0.12917 24.45438,0.20063 8.67671,0.0715 17.82798,0.16215 27.29348,0.16674 18.93283,0.0504 39.12627,0.10352 59.32062,0.15757 20.19435,-0.0541 40.3887,-0.10902 59.32062,-0.15941 9.46642,-0.005 18.61677,-0.10077 27.29348,-0.16857 8.67763,-0.0715 16.88161,-0.13833 24.45438,-0.19971 15.14553,-0.10902 27.76712,-0.34539 36.60232,-0.4425 8.83428,-0.14841 13.8831,-0.23361 13.8831,-0.23361"
           style="fill:#00a800;fill-opacity:1;fill-rule:nonzero;stroke:none;stroke-width:0.91613448"
           id="path2294"
           inkscape:connector-curvature="0" /><path
           d="m 393.80263,529.43499 c 0,0 -0.60282,-0.0229 -1.73424,-0.065 -1.13143,-0.0385 -2.78963,-0.0962 -4.90132,-0.16856 -4.22338,-0.0971 -10.25521,-0.33348 -17.49359,-0.4425 -7.23929,-0.10627 -15.68422,-0.3069 -24.73288,-0.38294 -4.52479,-0.0339 -9.19982,-0.0687 -13.9509,-0.10444 -4.75015,-0.0137 -9.57635,-0.0275 -14.40163,-0.0412 -4.8262,0.0137 -9.65148,0.0275 -14.40255,0.0403 -4.75016,0.0357 -9.42519,0.0696 -13.94998,0.10261 -9.04866,0.0715 -17.49359,0.27759 -24.73288,0.38294 -7.23838,0.10719 -13.27113,0.34722 -17.49359,0.44433 -2.11169,0.0724 -3.76989,0.13009 -4.90132,0.16948 -1.13142,0.0421 -1.73424,0.065 -1.73424,0.065 0,0 0.60282,0.0229 1.73424,0.0651 1.13143,0.0394 2.78963,0.0971 4.90132,0.16948 4.22246,0.0971 10.25521,0.33714 17.49359,0.44433 7.23929,0.10535 15.68422,0.31148 24.73288,0.38294 4.52479,0.033 9.19982,0.0669 13.94998,0.10261 4.75107,0.0128 9.57635,0.0266 14.40255,0.0403 4.82528,-0.0138 9.65148,-0.0275 14.40163,-0.0412 4.75108,-0.0357 9.42611,-0.0705 13.9509,-0.10444 9.04866,-0.076 17.49359,-0.27667 24.73288,-0.38294 7.23838,-0.10902 13.27021,-0.34539 17.49359,-0.4425 2.11169,-0.0724 3.76989,-0.13009 4.90132,-0.16856 1.13142,-0.0421 1.73424,-0.0651 1.73424,-0.0651"
           style="fill:#00a800;fill-opacity:1;fill-rule:nonzero;stroke:none;stroke-width:0.91613448"
           id="path2298"
           inkscape:connector-curvature="0" /></g><g
         id="g2346"><g
           style="fill:#ff0000"
           transform="matrix(0.49449453,0,0,0.94246278,215.92603,317.80958)"
           id="g2304"><path
             inkscape:connector-curvature="0"
             id="path2302"
             style="fill:#ff0000;fill-opacity:1;fill-rule:nonzero;stroke:none"
             d="m 0,0 c 0,0 -5.12,-0.093 -14.08,-0.255 -8.96,-0.106 -21.76,-0.364 -37.12,-0.483 -7.68,-0.067 -16.001,-0.14 -24.8,-0.218 -8.801,-0.074 -18.081,-0.179 -27.681,-0.184 -19.2,-0.055 -39.68,-0.115 -60.16,-0.174 -20.48,0.059 -40.961,0.117 -60.161,0.172 -9.6,0.005 -18.88,0.104 -27.68,0.182 -8.8,0.078 -17.12,0.151 -24.8,0.219 -15.36,0.117 -28.161,0.379 -37.121,0.485 -8.959,0.163 -14.08,0.256 -14.08,0.256 0,0 5.121,0.093 14.08,0.256 8.96,0.106 21.761,0.368 37.121,0.485 7.68,0.068 16,0.141 24.8,0.219 8.8,0.078 18.08,0.177 27.68,0.182 19.2,0.055 39.681,0.113 60.161,0.172 20.48,-0.059 40.96,-0.119 60.16,-0.174 9.6,-0.005 18.88,-0.11 27.681,-0.184 8.799,-0.078 17.12,-0.151 24.8,-0.218 C -35.84,0.619 -23.04,0.361 -14.08,0.255 -5.12,0.093 0,0 0,0" /></g><g
           style="fill:#ff0000"
           transform="matrix(0.49449453,0,0,0.94246278,188.75152,236.00541)"
           id="g2308"><path
             inkscape:connector-curvature="0"
             id="path2306"
             style="fill:#ff0000;fill-opacity:1;fill-rule:nonzero;stroke:none"
             d="m 0,0 c 0,0 -0.658,-0.025 -1.893,-0.071 -1.235,-0.042 -3.045,-0.105 -5.35,-0.184 -4.61,-0.106 -11.194,-0.364 -19.095,-0.483 -7.902,-0.116 -17.12,-0.335 -26.997,-0.418 -4.939,-0.037 -10.042,-0.075 -15.228,-0.114 -5.185,-0.015 -10.453,-0.03 -15.72,-0.045 -5.268,0.015 -10.535,0.03 -15.721,0.044 -5.185,0.039 -10.288,0.076 -15.227,0.112 -9.877,0.078 -19.095,0.303 -26.997,0.418 -7.901,0.117 -14.486,0.379 -19.095,0.485 -2.305,0.079 -4.115,0.142 -5.35,0.185 -1.235,0.046 -1.893,0.071 -1.893,0.071 0,0 0.658,0.025 1.893,0.071 1.235,0.043 3.045,0.106 5.35,0.185 4.609,0.106 11.194,0.368 19.095,0.485 7.902,0.115 17.12,0.34 26.997,0.418 4.939,0.036 10.042,0.073 15.227,0.112 5.186,0.014 10.453,0.029 15.721,0.044 5.267,-0.015 10.535,-0.03 15.72,-0.045 5.186,-0.039 10.289,-0.077 15.228,-0.114 9.877,-0.083 19.095,-0.302 26.997,-0.418 7.901,-0.119 14.485,-0.377 19.095,-0.483 2.305,-0.079 4.115,-0.142 5.35,-0.184 C -0.658,0.025 0,0 0,0" /></g><g
           id="g2312"
           transform="matrix(0.45302348,0,0,0.86342263,204.2593,300.9491)"
           style="fill:#00a800;fill-opacity:1"><path
             d="m 0,0 c 0,0 -5.12,-0.093 -14.08,-0.255 -8.96,-0.106 -21.76,-0.364 -37.12,-0.483 -7.68,-0.067 -16.001,-0.14 -24.8,-0.218 -8.801,-0.074 -18.081,-0.179 -27.681,-0.184 -19.2,-0.055 -39.68,-0.115 -60.16,-0.174 -20.48,0.059 -40.961,0.117 -60.161,0.172 -9.6,0.005 -18.88,0.104 -27.68,0.182 -8.8,0.078 -17.12,0.151 -24.8,0.219 -15.36,0.117 -28.161,0.379 -37.121,0.485 -8.959,0.163 -14.08,0.256 -14.08,0.256 0,0 5.121,0.093 14.08,0.256 8.96,0.106 21.761,0.368 37.121,0.485 7.68,0.068 16,0.141 24.8,0.219 8.8,0.078 18.08,0.177 27.68,0.182 19.2,0.055 39.681,0.113 60.161,0.172 20.48,-0.059 40.96,-0.119 60.16,-0.174 9.6,-0.005 18.88,-0.11 27.681,-0.184 8.799,-0.078 17.12,-0.151 24.8,-0.218 C -35.84,0.619 -23.04,0.361 -14.08,0.255 -5.12,0.093 0,0 0,0"
             style="fill:#00a800;fill-opacity:1;fill-rule:nonzero;stroke:none"
             id="path2310"
             inkscape:connector-curvature="0" /></g><g
           id="g2316"
           transform="matrix(0.45302348,0,0,0.86342263,171.76747,258.47613)"
           style="fill:#00a800;fill-opacity:1"><path
             d="m 0,0 c 0,0 -5.511,-0.093 -15.154,-0.255 -9.644,-0.106 -23.421,-0.364 -39.953,-0.483 -8.266,-0.067 -17.221,-0.14 -26.693,-0.218 -9.471,-0.074 -19.459,-0.179 -29.792,-0.184 -20.665,-0.055 -42.708,-0.115 -64.751,-0.174 -22.043,0.059 -44.085,0.117 -64.751,0.172 -10.332,0.005 -20.321,0.104 -29.792,0.182 -9.471,0.078 -18.426,0.151 -26.693,0.219 -16.531,0.117 -30.308,0.379 -39.952,0.485 -9.644,0.163 -15.155,0.256 -15.155,0.256 0,0 5.511,0.093 15.155,0.256 9.644,0.106 23.421,0.368 39.952,0.485 8.267,0.068 17.222,0.141 26.693,0.219 9.471,0.078 19.46,0.177 29.792,0.182 20.666,0.055 42.708,0.113 64.751,0.172 C -154.3,1.255 -132.257,1.195 -111.592,1.14 -101.259,1.135 -91.271,1.03 -81.8,0.956 -72.328,0.878 -63.373,0.805 -55.107,0.738 -38.575,0.619 -24.798,0.361 -15.154,0.255 -5.511,0.093 0,0 0,0"
             style="fill:#00a800;fill-opacity:1;fill-rule:nonzero;stroke:none"
             id="path2314"
             inkscape:connector-curvature="0" /></g><g
           id="g2320"
           transform="matrix(0.45302348,0,0,0.86342263,179.3638,226.00549)"
           style="fill:#00a800;fill-opacity:1"><path
             d="m 0,0 c 0,0 -0.658,-0.025 -1.893,-0.071 -1.235,-0.042 -3.045,-0.105 -5.35,-0.184 -4.61,-0.106 -11.194,-0.364 -19.095,-0.483 -7.902,-0.116 -17.12,-0.335 -26.997,-0.418 -4.939,-0.037 -10.042,-0.075 -15.228,-0.114 -5.185,-0.015 -10.453,-0.03 -15.72,-0.045 -5.268,0.015 -10.535,0.03 -15.721,0.044 -5.185,0.039 -10.288,0.076 -15.227,0.112 -9.877,0.078 -19.095,0.303 -26.997,0.418 -7.901,0.117 -14.486,0.379 -19.095,0.485 -2.305,0.079 -4.115,0.142 -5.35,0.185 -1.235,0.046 -1.893,0.071 -1.893,0.071 0,0 0.658,0.025 1.893,0.071 1.235,0.043 3.045,0.106 5.35,0.185 4.609,0.106 11.194,0.368 19.095,0.485 7.902,0.115 17.12,0.34 26.997,0.418 4.939,0.036 10.042,0.073 15.227,0.112 5.186,0.014 10.453,0.029 15.721,0.044 5.267,-0.015 10.535,-0.03 15.72,-0.045 5.186,-0.039 10.289,-0.077 15.228,-0.114 9.877,-0.083 19.095,-0.302 26.997,-0.418 7.901,-0.119 14.485,-0.377 19.095,-0.483 2.305,-0.079 4.115,-0.142 5.35,-0.184 C -0.658,0.025 0,0 0,0"
             style="fill:#00a800;fill-opacity:1;fill-rule:nonzero;stroke:none"
             id="path2318"
             inkscape:connector-curvature="0" /></g></g></g></g></svg>